<?xml version="1.0" encoding="utf-8"?>
<!-- Generator: Adobe Illustrator 13.0.0, SVG Export Plug-In . SVG Version: 6.00 Build 14948)  -->
<!DOCTYPE svg PUBLIC "-//W3C//DTD SVG 1.1//EN" "http://www.w3.org/Graphics/SVG/1.1/DTD/svg11.dtd">
<svg version="1.1" id="Layer_1" xmlns="http://www.w3.org/2000/svg" xmlns:xlink="http://www.w3.org/1999/xlink" x="0px" y="0px"
	 width="180px" height="185px" viewBox="0 0 180 185" enable-background="new 0 0 180 185" xml:space="preserve">
<path fill-rule="evenodd" clip-rule="evenodd" fill="#FFFFFF" d="M128.528,4.498c-16.759-5.547-35.015-3.79-48,4"/>
<path fill-rule="evenodd" clip-rule="evenodd" fill="#FFFFFF" d="M123.528,10.498c1.835,5.896-7.751,11.46-11,17
	c-15.263,26.028-14.437,65.391-15,103c-20.157-13.281-57.241-17.787-87-10C22.02,57.657,71.902,33.205,123.528,10.498z"/>
<path fill-rule="evenodd" clip-rule="evenodd" fill="#FFFFFF" d="M129.528,11.498c24.799,29.881,44.895,69.756,42,124
	c-14.24-7.628-45.513-13.925-66-5C116.791,94.582,134.72,60.603,129.528,11.498z"/>
<path fill-rule="evenodd" clip-rule="evenodd" fill="#FFFFFF" d="M1.528,123.498c52.944,7.414,118.721,10.595,173,20
	c2.777,9.258-3.871,17.354-9,22c-44.277-8.276-88.83,15.142-125-2C24.003,155.668,15.101,136.393,1.528,123.498z"/>
</svg>
