<?xml version="1.0" encoding="utf-8"?>
<!-- Generator: Adobe Illustrator 13.0.0, SVG Export Plug-In . SVG Version: 6.00 Build 14948)  -->
<!DOCTYPE svg PUBLIC "-//W3C//DTD SVG 1.1//EN" "http://www.w3.org/Graphics/SVG/1.1/DTD/svg11.dtd">
<svg version="1.1" id="Layer_1" xmlns="http://www.w3.org/2000/svg" xmlns:xlink="http://www.w3.org/1999/xlink" x="0px" y="0px"
	 width="150px" height="80px" viewBox="0 0 150 80" enable-background="new 0 0 150 80" xml:space="preserve">
<path fill-rule="evenodd" clip-rule="evenodd" fill="#FFFFFF" d="M133.695,63.331c-2.805,1.197-6.9,1.1-11,1
	c-4.662,13.182-30.877,15.156-35,0c-10,0-20,0-30,0c-6.207,13.513-29.361,15.305-35,0c-4.667,0-9.333,0-14,0
	c-21.547-19.789,7.033-41.989,33-39c8.272-28.303,72.942-37.926,77,0C137.361,25.942,148.16,49.729,133.695,63.331z M51.695,24.332
	c11.641-0.307,16.161,6.505,27,7c0.518-9.519,0.01-18.011-5-22C60.251,8.222,55.714,16.018,51.695,24.332z M87.695,29.332
	c7,0,12.305-1.695,20-1c0.844-6.845-2.518-9.483-5-13C91.551,13.854,86.871,18.841,87.695,29.332z M8.695,52.331
	c5.342-0.577,8.532-7.787,6-13C8.814,35.719,3.785,48.134,8.695,52.331z"/>
</svg>
