<?xml version="1.0" encoding="utf-8"?>
<!-- Generator: Adobe Illustrator 13.0.0, SVG Export Plug-In . SVG Version: 6.00 Build 14948)  -->
<!DOCTYPE svg PUBLIC "-//W3C//DTD SVG 1.1//EN" "http://www.w3.org/Graphics/SVG/1.1/DTD/svg11.dtd">
<svg version="1.1" id="Layer_1" xmlns="http://www.w3.org/2000/svg" xmlns:xlink="http://www.w3.org/1999/xlink" x="0px" y="0px"
	 width="285px" height="120px" viewBox="0 0 285 120" enable-background="new 0 0 285 120" xml:space="preserve">
<path fill-rule="evenodd" clip-rule="evenodd" fill="#FFFFFF" d="M210.528,16.498c-4.134,5.536-12.698,1.92-18,1
	c-25.066-4.345-53.938-7.818-86-7c0,3.334,0,6.667,0,10c42.265,3.264,80.322,20.054,123,15c17.824-2.11,27.958-28.021,52-18
	c0.786,10.152-14.694,13.227-15,24c-0.232,8.19,7.137,8.263,8,18c-17.113,7.557-26.013-10.01-39-12
	c-18.459-2.828-54.979,8.368-67,16c-9.046,5.744-14.768,14.502-26,18c1.546,5.787,5.565,9.103,9,13c7.571,0.519,18.022-4.993,22,1
	c-1.94,9.811-16.649,8.607-27,10c-27.32,3.679-74.579,11.845-101,10c-10.678-0.745-19.865-6.26-17-18
	c9.943,5.639,21.295,10.882,38,7c2.172-2.16,2.829-5.837,4-9c-52.751-8.666-9.332-70.879,24-73c0.305-6.639-1.443-6.731,0-11
	c-28.728,1.855-53.097,8.269-74,19c-6.083,3.123-12.698,10.676-20,7c-1.485-9.258,9.481-11.598,16-15
	c39.412-20.567,105.813-26.107,165-17C191.967,7.104,206.988,6.136,210.528,16.498z M82.528,36.498
	c-10.915-2.091-20.585,18.894-25,27c8.859-0.474,19.733,1.067,27-1C90.542,55.345,90.591,38.043,82.528,36.498z M109.528,44.498
	c-2.699,6.078-2.245,13.945,2,18c7.293,0.877,18.117,0.437,21-6c0.335-6.334-1.657-10.343-4-14
	C121.877,40.217,114.463,42.145,109.528,44.498z M80.528,96.498c-0.167,2.833-1.833,4.168-2,7c19.88-3.119,42.269-3.731,61-8
	c-3.09-2.576-3.795-7.538-8-9C118.36,93.663,99.996,95.633,80.528,96.498z"/>
</svg>
