<?xml version="1.0" encoding="utf-8"?>
<!-- Generator: Adobe Illustrator 13.0.0, SVG Export Plug-In . SVG Version: 6.00 Build 14948)  -->
<!DOCTYPE svg PUBLIC "-//W3C//DTD SVG 1.1//EN" "http://www.w3.org/Graphics/SVG/1.1/DTD/svg11.dtd">
<svg version="1.1" id="Layer_1" xmlns="http://www.w3.org/2000/svg" xmlns:xlink="http://www.w3.org/1999/xlink" x="0px" y="0px"
	 width="130px" height="85px" viewBox="0 0 130 85" enable-background="new 0 0 130 85" xml:space="preserve">
<path fill-rule="evenodd" clip-rule="evenodd" fill="#FFFFFF" d="M64.528,3.499c-0.549,5.118-7.599,3.735-13,4
	c-2.558,13.038-15.758,20.851-13,36c2.708,14.871,33.444,23.312,39,4c-28.148-2.696-6.54-27.823,9-31
	c32.742-6.692,52.187,37.473,26,53c1.593,16.29-19.878,18.339-26,8c-33.042,8.915-41.511-20.385-62-24
	c-2.014,8.727,5.217,7.354,6,15c2.301,22.482-32.745,19.111-27-3c1.988-7.652,12.165-5.965,15-13c-6.283-3.588-11.58,2.4-18,2
	c1.087-26.345,21.883-41.376,45-49C47.23-0.74,60.498-1.026,64.528,3.499z"/>
</svg>
