<?xml version="1.0" encoding="utf-8"?>
<!-- Generator: Adobe Illustrator 13.0.0, SVG Export Plug-In . SVG Version: 6.00 Build 14948)  -->
<!DOCTYPE svg PUBLIC "-//W3C//DTD SVG 1.1//EN" "http://www.w3.org/Graphics/SVG/1.1/DTD/svg11.dtd">
<svg version="1.1" id="Layer_1" xmlns="http://www.w3.org/2000/svg" xmlns:xlink="http://www.w3.org/1999/xlink" x="0px" y="0px"
	 width="140px" height="90px" viewBox="0 0 140 90" enable-background="new 0 0 140 90" xml:space="preserve">
<path fill-rule="evenodd" clip-rule="evenodd" fill="#FFFFFF" d="M68.528,4.499c-1.587,5.079-8.737,4.596-15,5
	c4.486,3.19,9.042,14.951,13,22c15.209,1.772,18.212-15.315,37-16c5.946-0.217,17.71,0.474,20,8c-8.33,5.67-25.746,2.254-28,14
	c5.146,12.708,9.551,3.193,19,2c32.962-4.163,31.533,41.001,9,45c-13.601,2.414-25.599-3.879-28-22c-7.29,1.373-12.183-2.374-18-2
	c-4.151,0.268-6.827,3.488-11,3c-13.939-1.631-15.315-20.119-26-28c-2.53,0.803-2.55,4.117-4,6c16.817,10.066,11.103,39.955-7,43
	c-29.435,4.951-39.064-38.559-9-45c3.129,0.205,7.341-0.674,9,1c2.334-1.666,2.568-5.432,4-8c-9.794-8.001-24.917,1.599-33,1
	c0.94-9.49,14.428-11.44,23-10c4.757-7.576,9.292-15.374,21-16C45.616-1.243,64.032-1.724,68.528,4.499z M85.528,55.498
	c4.738-0.738,6.875,1.125,11,1c-1.069-3.735,2.483-2.85,2-6c-1.921-2.412-4.696-3.97-7-6C91.191,49.829,86.688,50.99,85.528,55.498z
	"/>
</svg>
