<?xml version="1.0" encoding="utf-8"?>
<!-- Generator: Adobe Illustrator 13.0.0, SVG Export Plug-In . SVG Version: 6.00 Build 14948)  -->
<!DOCTYPE svg PUBLIC "-//W3C//DTD SVG 1.1//EN" "http://www.w3.org/Graphics/SVG/1.1/DTD/svg11.dtd">
<svg version="1.1" id="Layer_1" xmlns="http://www.w3.org/2000/svg" xmlns:xlink="http://www.w3.org/1999/xlink" x="0px" y="0px"
	 width="340px" height="145px" viewBox="0 0 340 145" enable-background="new 0 0 340 145" xml:space="preserve">
<path fill-rule="evenodd" clip-rule="evenodd" fill="#FFFFFF" d="M334.528,6.498c-0.69,17.59-26.209,44.239-24,64
	c1.496,13.384,15.741,12.6,19,26c-19.267,13.299-35.935-9.317-54-13c-19.981-4.072-44.949,3.51-64,8
	c6.198,21.469,24.211,31.123,34,49c-30.229,8.763-52.983-9.123-77-21c-8.01-3.961-17.354-8.399-26-13c-8.46-4.5-17.57-11.608-25-13
	c-18.874-3.534-45.423,0.445-68-1c-19.566-1.252-49.431-2.099-49-19c0.334-13.123,16.67-12.471,27-17
	c7.872-3.451,11.866-10.897,18-15c8.042-5.377,19.367-9.811,33-11c47.69-4.158,112.048,5.541,160,8c11.438,0.587,24.688,0.973,33-2
	C292.242,29.093,301.281-13.55,334.528,6.498z M40.528,54.498c14.481-2.147,20.306,4.361,31,6c1.105-4.646,1.776-12.492,0-17
	C60.466,36.311,47.067,47.719,40.528,54.498z M112.528,62.498c6,0,12,0,18,0c1.604-3.397,1.604-12.602,0-16c-6,0-12,0-18,0
	C110.925,49.896,110.925,59.101,112.528,62.498z M141.528,62.498c6,0,12,0,18,0c1.494-3.995,1.494-12.004,0-16c-6,0-12,0-18,0
	C139.925,49.896,139.925,59.101,141.528,62.498z"/>
</svg>
