<?xml version="1.0" encoding="utf-8"?>
<!-- Generator: Adobe Illustrator 13.0.0, SVG Export Plug-In . SVG Version: 6.00 Build 14948)  -->
<!DOCTYPE svg PUBLIC "-//W3C//DTD SVG 1.1//EN" "http://www.w3.org/Graphics/SVG/1.1/DTD/svg11.dtd">
<svg version="1.1" id="Layer_1" xmlns="http://www.w3.org/2000/svg" xmlns:xlink="http://www.w3.org/1999/xlink" x="0px" y="0px"
	 width="130px" height="270px" viewBox="0 0 130 270" enable-background="new 0 0 130 270" xml:space="preserve">
<path fill-rule="evenodd" clip-rule="evenodd" fill="#FFFFFF" d="M69.528,2.498c0,12.001,0,24,0,36
	c35.712,13.088,42.28,82.799,40,133c-0.261,5.755-2.054,11.441-1,17c2.001,10.555,13.603,15.139,19,22
	c-1.521,19.479-1.677,40.323-8,55c-10.996-9.003-14.31-25.689-25-35c-3.563,7.772-28.377,10.059-29-2c-2.481,2.186-3.519,5.815-6,8
	c-9.032-0.301-20.771,2.105-22-6c-13.07,7.264-16.64,24.027-26,35c-5.537-4.355-5.764-14.717-7-25c-1.053-8.76-4.441-20.947-2-29
	c2.484-8.195,18.283-13.841,20-24c1.398-8.274-1.622-18.664-2-27c-2.101-46.26-0.35-109.852,37-120
	C59.229,26.41,51.099-6.637,69.528,2.498z M80.528,63.498c-7.841,3.046-6.999,24.153,3,24
	C92.265,84.004,89.004,64.556,80.528,63.498z"/>
</svg>
