<?xml version="1.0" encoding="utf-8"?>
<!-- Generator: Adobe Illustrator 13.0.0, SVG Export Plug-In . SVG Version: 6.00 Build 14948)  -->
<!DOCTYPE svg PUBLIC "-//W3C//DTD SVG 1.1//EN" "http://www.w3.org/Graphics/SVG/1.1/DTD/svg11.dtd">
<svg version="1.1" id="Layer_1" xmlns="http://www.w3.org/2000/svg" xmlns:xlink="http://www.w3.org/1999/xlink" x="0px" y="0px"
	 width="150px" height="140px" viewBox="0 0 150 140" enable-background="new 0 0 150 140" xml:space="preserve">
<path fill-rule="evenodd" clip-rule="evenodd" fill="#FFFFFF" d="M81.528,1.498c5.818,10.429,0.405,25.14,0,38
	c3.527,3.473,7.91,6.09,6,15c5.662,8.31,11.019,11.726,21,10c4.321-0.746,7.577-5.203,12-6c11.136-2.005,19.862,3.031,27,9
	c-4.734,13.598-17.188,20.556-14,36c2.062,9.994,12.493,12.307,15,23c-5.823,6.119-13.278,11.586-24,11
	c-6.052-0.33-10.711-5.777-15-6c-7.584-0.393-18.906,6.836-31,7c-22.113,0.301-51.965-8.82-65-19c-8.251-6.443-17.488-20.561-9-32
	c12.652-17.051,43.325-22.869,62-34c1.137-3.529,1.104-8.229,2-12c2.359-1.307,6.911-0.422,9-2c0.022-7.803,2.654-17.796,0-25
	c-2.702-1.612-5.849,0.996-9-3C66.256,5.246,74.034-2.016,81.528,1.498z M17.528,92.498c1.129,12.96,29.171,12.585,28-2
	c-0.5-6.224-6.834-9.662-15-9C22.471,82.152,16.864,84.873,17.528,92.498z M73.528,90.498c0.528-7.552-6.386-8.545-12-7
	C40.675,89.24,72.323,107.707,73.528,90.498z"/>
</svg>
