<?xml version="1.0" encoding="utf-8"?>
<!-- Generator: Adobe Illustrator 13.0.0, SVG Export Plug-In . SVG Version: 6.00 Build 14948)  -->
<!DOCTYPE svg PUBLIC "-//W3C//DTD SVG 1.1//EN" "http://www.w3.org/Graphics/SVG/1.1/DTD/svg11.dtd">
<svg version="1.1" id="Layer_1" xmlns="http://www.w3.org/2000/svg" xmlns:xlink="http://www.w3.org/1999/xlink" x="0px" y="0px"
	 width="275px" height="125px" viewBox="0 0 275 125" enable-background="new 0 0 275 125" xml:space="preserve">
<path fill-rule="evenodd" clip-rule="evenodd" fill="#FFFFFF" d="M135.528,7.499c1.938,26.721,1.657,59.571-2,84
	c1.712,2.289,7.634,0.367,11,1c-5.057-22.693-4.402-56.821,5-74c22.909-5.422,62.451-6.47,89-5c5.888,0.326,17.287,0.35,22,3
	c8.366,4.706,10.484,24.889,11,36c1.06,22.823-3.916,49.705-19,57c-3.667,0-7.333,0-11,0c-0.525,13.18-22.404,12.87-23,0
	c-8.667,0-17.333,0-26,0c-0.798,12.459-22.461,13.498-23,0c-5,0-10,0-15,0c-2.747-3.252-6.864-5.135-7-11
	c-6.862-0.018-7.163-0.883-13-1c-3.858,1.809-2.931,8.402-6,11c-11.498,3.436-20.609,16.494-36,11c-4.571-1.631-6.822-6.206-11-10
	c-12.333,0-24.667,0-37,0c-0.753,12.953-22.902,15.262-23,0c-5.745-0.255-12.749,0.75-17-1c-3.471-12.83-7.207-37.252,4-45
	c5.751-3.975,12.421-0.228,18-6c-2.95-14.82-9.656-30.871-8-47c8.689-2.671,21.056-4.632,31-3c0.041,11.895-1.774,30.088-1,46
	c8.198,3.523,18.482,2.184,25-1c1.305-16.497-6.657-29.124,2-40C84.281,1.502,123.82-4.617,135.528,7.499z M84.528,51.499
	c5.648,2.352,12.254,3.746,20,4c6.605-7.334,3.1-24.924,1-35C85.655,7.683,75.403,34.213,84.528,51.499z M157.528,29.499
	c-4.217,9.789-5.681,27.763,1,36c6.667,0,13.333,0,20,0c5.591-7.298,4.411-24.81,3-36C171.801,29.023,167.256,29.023,157.528,29.499
	z M193.528,30.499c-4.396,7.414-4.396,26.586,0,34c5.714,1.953,14.728,0.605,22,1c4.089-8.284,3.654-25.163,2-36
	C209.018,29.363,201.652,28.48,193.528,30.499z M228.528,29.499c-3.325,9.496-3.278,28.895,2,36c7.272-0.395,16.286,0.953,22-1
	c3.833-9.99,3.977-26.15-1-35C242.656,29.721,236.543,27.625,228.528,29.499z M11.528,84.498c4.599-2.242,6.345-10.354,3-15
	C6.38,67.216,4.642,83.918,11.528,84.498z"/>
</svg>
