<?xml version="1.0" encoding="utf-8"?>
<!-- Generator: Adobe Illustrator 13.0.0, SVG Export Plug-In . SVG Version: 6.00 Build 14948)  -->
<!DOCTYPE svg PUBLIC "-//W3C//DTD SVG 1.1//EN" "http://www.w3.org/Graphics/SVG/1.1/DTD/svg11.dtd">
<svg version="1.1" id="Layer_1" xmlns="http://www.w3.org/2000/svg" xmlns:xlink="http://www.w3.org/1999/xlink" x="0px" y="0px"
	 width="270px" height="130px" viewBox="0 0 270 130" enable-background="new 0 0 270 130" xml:space="preserve">
<path fill-rule="evenodd" clip-rule="evenodd" fill="#FFFFFF" d="M95.528,0.499c51.667,0,103.333,0,155,0
	c19.362,24.064,10.396,83.069-2,108c-17.684-3.641-18.012,14.945-35,13c-7.271-0.832-9.868-4.936-14-11c-15.667,0-31.333,0-47,0
	c-5.118,13.438-30.181,14.49-35,0c-7,0-14,0-21,0C85.604,84.407,82.297,26.756,95.528,0.499z"/>
<path fill-rule="evenodd" clip-rule="evenodd" fill="#FFFFFF" d="M79.528,5.499c2.021,32.684,6.186,73.892-1,104
	c-2.147,1.854-7.325,0.676-11,1c-3.894,14.755-29.705,13.475-34,0c-6.677-0.656-15.986,1.32-21-1c-12.307-19.655-17.266-63.254-3-83
	C23.03,7.812,52.511-0.088,79.528,5.499z M10.528,43.499c12.247,0.159,22.045,7.858,33,6c1.804-9.151,3.626-20.814-3-26
	C23.056,19.01,12.772,29.511,10.528,43.499z M14.528,88.498c6.309-2.271,4.411-16.026-2-17C4.873,72.814,6.396,88.928,14.528,88.498
	z"/>
</svg>
