<?xml version="1.0" encoding="utf-8"?>
<!-- Generator: Adobe Illustrator 13.0.0, SVG Export Plug-In . SVG Version: 6.00 Build 14948)  -->
<!DOCTYPE svg PUBLIC "-//W3C//DTD SVG 1.1//EN" "http://www.w3.org/Graphics/SVG/1.1/DTD/svg11.dtd">
<svg version="1.1" id="Layer_1" xmlns="http://www.w3.org/2000/svg" xmlns:xlink="http://www.w3.org/1999/xlink" x="0px" y="0px"
	 width="145px" height="90px" viewBox="0 0 145 90" enable-background="new 0 0 145 90" xml:space="preserve">
<path fill-rule="evenodd" clip-rule="evenodd" fill="#FFFFFF" d="M66.528,4.499c-1.252,6.081-12.219,2.447-17,5
	c-2.261,2.073-3.123,5.543-4,9c15.453,4.881,34.207,6.459,51,10c1.757-0.91,1.829-3.504,3-5c-4.218-3.782-12.636-3.365-14-10
	c8.989-5.478,28.743-5.93,28,9c-3.07,1.596-9.089,0.244-9,5c13.254,2.869,36.665,0.5,36,14c-10.663-2.578-29.271-11.272-41-3
	c-0.729,2.729,1.987,2.013,2,4c16.283-8.449,38.655-0.333,38,20c-0.77,23.893-37.729,30.607-44,5c-5.265-0.598-8.592,0.742-13,1
	c-14.573-13.094-27.424-27.909-42-41c0.059,9.636,20.556,17.065,14,30c-8.854-3.812-8.032-17.301-18-20
	c-3.958,7.124,4.435,7.528,7,13c6.971,14.869-2.284,33.708-20,34c-31.356,0.518-29.865-52.025,6-45c-0.423-2.09,0.686-2.648,1-4
	c-9.469-7.387-20.852,4.791-29,2c2.501-10.416,20.662-12.693,31-9c6.372-7.628,7.96-20.041,14-28
	C53.481,1.546,65.412-2.385,66.528,4.499z M82.528,58.498c3.894-8.105,8.077-15.923,12-24c-15.109-2.224-29.934-4.733-44-8
	C60.065,38.295,70.533,49.16,82.528,58.498z"/>
</svg>
