<?xml version="1.0" encoding="UTF-8" standalone="no"?>
<!-- Created with Inkscape (http://www.inkscape.org/) -->

<svg
   xmlns:dc="http://purl.org/dc/elements/1.1/"
   xmlns:cc="http://creativecommons.org/ns#"
   xmlns:rdf="http://www.w3.org/1999/02/22-rdf-syntax-ns#"
   xmlns:svg="http://www.w3.org/2000/svg"
   xmlns="http://www.w3.org/2000/svg"
   version="1.1"
   width="66.571114"
   height="26.405186"
   viewBox="5 -10 66.571114 35.647001"
   id="Your_Icon"
   xml:space="preserve"><metadata
     id="metadata3182"><rdf:RDF><cc:Work
         rdf:about=""><dc:format>image/svg+xml</dc:format><dc:type
           rdf:resource="http://purl.org/dc/dcmitype/StillImage" /><dc:title></dc:title></cc:Work></rdf:RDF></metadata><defs
     id="defs3180" /><g
     transform="translate(-11.649945,-42.177)"
     id="g3162"><g
       id="g3164"><g
         id="g3166"><g
           id="g3168" /></g><g
         id="g3170" /></g></g><path
     d="m 76.772055,21.925 c 0,2.056 -1.664,3.722 -3.721,3.722 -2.055,0 -3.721,-1.666 -3.721,-3.722 0,-2.055 1.666,-3.721 3.721,-3.721 2.057,0 3.721,1.666 3.721,3.721 z m -64.63,-3.721 c -2.055,0 -3.7210001,1.666 -3.7210001,3.721 0,2.056 1.6670001,3.722 3.7210001,3.722 2.056,0 3.721,-1.666 3.721,-3.722 0.001,-2.055 -1.665,-3.721 -3.721,-3.721 z m 71.079,-9.675 v 11.164 c 0,1.232 -1,2.231 -2.233,2.231 h -0.502 c 0,-4.099 -3.335,-7.435 -7.435,-7.435 -4.1,0 -7.434,3.336 -7.434,7.435 h -0.26 -45.78 c 0,-4.099 -3.335,-7.435 -7.435,-7.435 -4.0540001,0 -7.3540001,3.264 -7.4280001,7.301 l -11.364,-2.097 V -10 H 66.475055 c 2.36,0 4.368,1.472 5.185,3.542 l 5.7,12.753 h 3.628 c 1.233,0.001 2.233,1.001 2.233,2.234 z m -69.869,-15.072 H -4.6029451 V 6.11 H 13.352055 V -6.543 z m 20.139,0 h -17.956 V 6.11 h 17.956 V -6.543 z m 20.136,0 h -17.953 V 6.11 h 17.953 V -6.543 z m 10,0 h -7.815 v 25.306 h 7.815 V -6.543 z"
     id="path3172" /></svg>