<?xml version="1.0" encoding="UTF-8" standalone="no"?>
<!-- Created with Inkscape (http://www.inkscape.org/) -->

<svg
   xmlns:dc="http://purl.org/dc/elements/1.1/"
   xmlns:cc="http://creativecommons.org/ns#"
   xmlns:rdf="http://www.w3.org/1999/02/22-rdf-syntax-ns#"
   xmlns:svg="http://www.w3.org/2000/svg"
   xmlns="http://www.w3.org/2000/svg"
   xmlns:sodipodi="http://sodipodi.sourceforge.net/DTD/sodipodi-0.dtd"
   xmlns:inkscape="http://www.inkscape.org/namespaces/inkscape"
   version="1.1"
   width="66.751854"
   height="20.702963"
   viewBox="5 -10 66.751854 27.949"
   id="Your_Icon"
   xml:space="preserve"
   inkscape:version="0.48.4 r9939"
   sodipodi:docname="car.svg"><sodipodi:namedview
     pagecolor="#ffffff"
     bordercolor="#666666"
     borderopacity="1"
     objecttolerance="10"
     gridtolerance="10"
     guidetolerance="10"
     inkscape:pageopacity="0"
     inkscape:pageshadow="2"
     inkscape:window-width="640"
     inkscape:window-height="480"
     id="namedview2997"
     showgrid="false"
     inkscape:zoom="5.4380512"
     inkscape:cx="33.375927"
     inkscape:cy="10.351481"
     inkscape:window-x="0"
     inkscape:window-y="27"
     inkscape:window-maximized="0"
     inkscape:current-layer="Your_Icon" /><metadata
     id="metadata3136"><rdf:RDF><cc:Work
         rdf:about=""><dc:format>image/svg+xml</dc:format><dc:type
           rdf:resource="http://purl.org/dc/dcmitype/StillImage" /><dc:title /></cc:Work></rdf:RDF></metadata><defs
     id="defs3134" /><g
     transform="translate(-11.681575,-46.026)"
     id="g3116"
     style="fill:#ffffff"><g
       id="g3118"
       style="fill:#ffffff"><g
         id="g3120"
         style="fill:#ffffff"><g
           id="g3122"
           style="fill:#ffffff" /></g><g
         id="g3124"
         style="fill:#ffffff" /></g></g><path
     d="m 17.137425,12.153 c 0,3.202 -2.594,5.796 -5.795,5.796 -3.2009996,0 -5.7969996,-2.594 -5.7969996,-5.796 0,-3.2 2.596,-5.796 5.7969996,-5.796 3.201,0 5.795,2.596 5.795,5.796 z m 50.527,-5.796 c -3.201,0 -5.797,2.596 -5.797,5.796 0,3.202 2.596,5.796 5.797,5.796 3.202,0 5.796,-2.594 5.796,-5.796 0,-3.2 -2.594,-5.796 -5.796,-5.796 z m 15.769,-3.967 v 4.506 c 0,3.111 -2.521,5.633 -5.632,5.633 h -1.396 c 0.006,-0.125 0.02,-0.249 0.02,-0.376 0,-4.831 -3.93,-8.762 -8.762,-8.762 -4.832,0 -8.763,3.931 -8.763,8.762 0,0.127 0.015,0.251 0.02,0.376 h -38.836 c 0.005,-0.125 0.019,-0.249 0.019,-0.376 0,-4.831 -3.93,-8.762 -8.761,-8.762 -4.8319996,0 -8.7629996,3.931 -8.7629996,8.762 0,0.127 0.014,0.251 0.02,0.376 h -3.648 c -3.112,0 -5.633,-2.522 -5.633,-5.633 V 2.39 c 0,-3.11 2.521,-5.631 5.632,-5.631 0,0 24.2189996,-6.759 38.2989996,-6.759 6.136,0 12.915,3.537 18.609,4.985 7.374,1.875 21.943,1.774 21.943,1.774 0.271,0 0.532,0.042 0.794,0.08 V -5.35 c 0,-0.491 0.398,-0.89 0.89,-0.89 0.492,0 0.89,0.398 0.89,0.89 v 2.758 c 1.809,0.936 3.058,2.804 3.058,4.982 z m -28.136,-5.224 c -2.035,-0.519 -4.109,-1.257 -6.306,-2.039 -3.972,-1.414 -8.079,-2.875 -11.742,-2.875 -5.711,0 -13.225,1.164 -20.039,2.521 -4.009,0.797 -2.43,2.394 0.276,2.394 2.706,-10e-4 37.811,-10e-4 37.811,-10e-4 z"
     id="path3126"
     style="fill:#ffffff" /></svg>