<?xml version="1.0" encoding="UTF-8" standalone="no"?>
<!-- Created with Inkscape (http://www.inkscape.org/) -->

<svg
   xmlns:dc="http://purl.org/dc/elements/1.1/"
   xmlns:cc="http://creativecommons.org/ns#"
   xmlns:rdf="http://www.w3.org/1999/02/22-rdf-syntax-ns#"
   xmlns:svg="http://www.w3.org/2000/svg"
   xmlns="http://www.w3.org/2000/svg"
   xmlns:sodipodi="http://sodipodi.sourceforge.net/DTD/sodipodi-0.dtd"
   xmlns:inkscape="http://www.inkscape.org/namespaces/inkscape"
   version="1.1"
   width="66.672592"
   height="36.854816"
   viewBox="5 -10 66.672592 49.754002"
   id="Your_Icon"
   xml:space="preserve"
   inkscape:version="0.48.4 r9939"
   sodipodi:docname="lorry.svg"><sodipodi:namedview
     pagecolor="#ffffff"
     bordercolor="#666666"
     borderopacity="1"
     objecttolerance="10"
     gridtolerance="10"
     guidetolerance="10"
     inkscape:pageopacity="0"
     inkscape:pageshadow="2"
     inkscape:window-width="640"
     inkscape:window-height="480"
     id="namedview3008"
     showgrid="false"
     inkscape:zoom="5.4445161"
     inkscape:cx="33.336296"
     inkscape:cy="18.427408"
     inkscape:window-x="0"
     inkscape:window-y="27"
     inkscape:window-maximized="0"
     inkscape:current-layer="Your_Icon" /><metadata
     id="metadata3090"><rdf:RDF><cc:Work
         rdf:about=""><dc:format>image/svg+xml</dc:format><dc:type
           rdf:resource="http://purl.org/dc/dcmitype/StillImage" /><dc:title /></cc:Work></rdf:RDF></metadata><defs
     id="defs3088" /><g
     transform="translate(-11.671704,-35.123)"
     id="g3070"
     style="fill:#ffffff"><g
       id="g3072"
       style="fill:#ffffff"><g
         id="g3074"
         style="fill:#ffffff"><g
           id="g3076"
           style="fill:#ffffff" /></g><g
         id="g3078"
         style="fill:#ffffff" /></g></g><path
     d="m 83.340296,17.234 v 11.183 c 0,1.234 -0.999,2.236 -2.235,2.236 h -8.947 -0.625 c -1.425,-3.166 -4.603,-5.38 -8.296,-5.38 -3.688,0 -6.869,2.214 -8.294,5.38 h -34.857 c -1.425,-3.166 -4.604,-5.38 -8.295,-5.38 -3.5609995,0 -6.6429995,2.063 -8.1359995,5.051 l -10.323,-1.907 V 14.814 h 2.982 V -10 H 53.372296 v 24.813 h 3.862 V -1.322 h 9.333 c 2.367,0 4.377,1.475 5.194,3.551 l 5.708,12.772 h 3.635 c 1.237,0 2.236,1 2.236,2.233 z m -20.103,11.759 c -2.97,0 -5.379,2.409 -5.379,5.381 0,2.97 2.409,5.38 5.379,5.38 2.972,0 5.382,-2.41 5.382,-5.38 0,-2.972 -2.41,-5.381 -5.382,-5.381 z m -51.447,0 c -2.9699995,0 -5.3789995,2.409 -5.3789995,5.381 0,2.97 2.409,5.38 5.3789995,5.38 2.971,0 5.38,-2.41 5.38,-5.38 0,-2.972 -2.408,-5.381 -5.38,-5.381 z"
     id="path3080"
     style="fill:#ffffff" /></svg>