<?xml version="1.0" encoding="utf-8"?>
<!-- Generator: Adobe Illustrator 13.0.0, SVG Export Plug-In . SVG Version: 6.00 Build 14948)  -->
<!DOCTYPE svg PUBLIC "-//W3C//DTD SVG 1.1//EN" "http://www.w3.org/Graphics/SVG/1.1/DTD/svg11.dtd">
<svg version="1.1" id="Layer_1" xmlns="http://www.w3.org/2000/svg" xmlns:xlink="http://www.w3.org/1999/xlink" x="0px" y="0px"
	 width="275px" height="130px" viewBox="0 0 275 130" enable-background="new 0 0 275 130" xml:space="preserve">
<path fill-rule="evenodd" clip-rule="evenodd" fill="#FFFFFF" d="M106.528,0.499c51.669,0.664,105.997-1.33,156,1
	c18.212,25.549,8.819,82.558-3,108c-3.462,1.539-9.116,0.885-14,1c-6.849,5.947-9.151,11.804-20,11
	c-9.394-0.695-11.636-10.652-19-11c-7.942-0.375-11.212,11.443-23,11c-7.538-0.283-11.353-3.988-16-11c-20,0-40,0-60,0
	C96.606,84.467,93.248,26.691,106.528,0.499z"/>
<path fill-rule="evenodd" clip-rule="evenodd" fill="#FFFFFF" d="M90.528,2.499c1.603,33.917,6.427,75.949-1,107
	c-15.238-1.912-13.657,14.704-31,12c-7.167-1.117-8.81-6.148-14-11c-12.003-0.662-26.662,1.329-37-1
	c-9.138-13.311-7.294-40.039-4-58c7.815-2.851,20.358-0.975,29-3C41.906,23.733,52.683-4.485,90.528,2.499z M40.528,47.499
	c12.467-0.467,17.958,6.042,30,6c1.926-16.73,2.755-22.476-1-38C50.375,12.899,44.054,31.195,40.528,47.499z M10.528,56.499
	c-4.171,2.072-7.031,16.625,0,18C19.152,74.329,18.095,56.975,10.528,56.499z"/>
</svg>
