<?xml version="1.0" encoding="UTF-8" standalone="no"?>
<!-- Created with Inkscape (http://www.inkscape.org/) -->

<svg
   xmlns:dc="http://purl.org/dc/elements/1.1/"
   xmlns:cc="http://creativecommons.org/ns#"
   xmlns:rdf="http://www.w3.org/1999/02/22-rdf-syntax-ns#"
   xmlns:svg="http://www.w3.org/2000/svg"
   xmlns="http://www.w3.org/2000/svg"
   xmlns:sodipodi="http://sodipodi.sourceforge.net/DTD/sodipodi-0.dtd"
   xmlns:inkscape="http://www.inkscape.org/namespaces/inkscape"
   version="1.1"
   width="66.71814"
   height="26.397038"
   viewBox="5 -10 66.71814 35.636001"
   id="Your_Icon"
   xml:space="preserve"
   inkscape:version="0.48.4 r9939"
   sodipodi:docname="plane.svg"><sodipodi:namedview
     pagecolor="#ffffff"
     bordercolor="#666666"
     borderopacity="1"
     objecttolerance="10"
     gridtolerance="10"
     guidetolerance="10"
     inkscape:pageopacity="0"
     inkscape:pageshadow="2"
     inkscape:window-width="640"
     inkscape:window-height="480"
     id="namedview3019"
     showgrid="false"
     inkscape:zoom="5.4407992"
     inkscape:cx="33.35907"
     inkscape:cy="13.198519"
     inkscape:window-x="0"
     inkscape:window-y="27"
     inkscape:window-maximized="0"
     inkscape:current-layer="Your_Icon" /><metadata
     id="metadata3159"><rdf:RDF><cc:Work
         rdf:about=""><dc:format>image/svg+xml</dc:format><dc:type
           rdf:resource="http://purl.org/dc/dcmitype/StillImage" /><dc:title /></cc:Work></rdf:RDF></metadata><defs
     id="defs3157" /><g
     transform="translate(-11.606189,-42.182)"
     id="g3139"
     style="fill:#ffffff"><g
       id="g3141"
       style="fill:#ffffff"><g
         id="g3143"
         style="fill:#ffffff"><g
           id="g3145"
           style="fill:#ffffff" /></g><g
         id="g3147"
         style="fill:#ffffff" /></g></g><path
     d="m 29.745811,0.308 -5.159,-7.594 h 10.432 l 8.088,7.594 h -13.361 z m 53.648,11.471 c 0,2.583 -12.482,3.545 -24.361,3.545 -1.965,0 -7.083,0 -13.039,0 l -10.984,10.312 h -10.432 l 7.007,-10.313 c -7.253,0 -13.053,0 -13.053,0 -1.738,0 -3.31,-0.71 -4.444,-1.855 h -0.04 l -0.184,-0.271 c -0.352,-0.395 -0.648,-0.834 -0.892,-1.311 L 3.5418113,-1.997 c -3.18400005,0 -9.441,0 -9.758,0 -0.585,0 -0.563,-0.46 -0.205,-0.563 0.334,-0.095 7.06399995,-2.088 7.978,-2.358 l -3.452,-5.082 h 10.433 L 22.169811,2.802 c 9.168,0 32.829,0 36.863,0 7.529,0 7.999,3.908 11.074,4.547 6.101,1.27 13.287,3.22 13.287,4.43 z m -47.579,-4.311 c 0,-0.979 -0.794,-1.772 -1.772,-1.772 -0.978,0 -1.773,0.793 -1.773,1.772 0,0.978 0.795,1.772 1.773,1.772 0.978,0 1.772,-0.794 1.772,-1.772 z m 6.376,0 c 0,-0.979 -0.793,-1.772 -1.772,-1.772 -0.979,0 -1.772,0.793 -1.772,1.772 0,0.978 0.793,1.772 1.772,1.772 0.979,0 1.772,-0.794 1.772,-1.772 z m 6.376,0 c 0,-0.979 -0.794,-1.772 -1.773,-1.772 -0.979,0 -1.771,0.793 -1.771,1.772 0,0.978 0.793,1.772 1.771,1.772 0.979,10e-4 1.773,-0.794 1.773,-1.772 z m 6.376,0 c 0,-0.979 -0.793,-1.772 -1.773,-1.772 -0.979,0 -1.771,0.793 -1.771,1.772 0,0.978 0.793,1.772 1.771,1.772 0.98,10e-4 1.773,-0.794 1.773,-1.772 z"
     id="path3149"
     style="fill:#ffffff" /></svg>