<?xml version="1.0" encoding="utf-8"?>
<!-- Generator: Adobe Illustrator 13.0.0, SVG Export Plug-In . SVG Version: 6.00 Build 14948)  -->
<!DOCTYPE svg PUBLIC "-//W3C//DTD SVG 1.1//EN" "http://www.w3.org/Graphics/SVG/1.1/DTD/svg11.dtd">
<svg version="1.1" id="Layer_1" xmlns="http://www.w3.org/2000/svg" xmlns:xlink="http://www.w3.org/1999/xlink" x="0px" y="0px"
	 width="400px" height="220px" viewBox="0 0 400 220" enable-background="new 0 0 400 220" xml:space="preserve">
<path fill-rule="evenodd" clip-rule="evenodd" fill="#FFFFFF" d="M242.528,1.498c15.312,1.022,29.233,3.434,42,7
	c-5.524,23.477-21.215,36.785-27,60c10.946,1.146,24.083,9.977,34,7c8.034-2.411,12.776-21.127,17-30
	c6.11-12.833,11.433-22.926,18-29c13.192,2.809,26.402,5.598,39,9c-5.448,23.553-21.741,36.26-26,61c8.785,5.882,22.262,7.072,31,13
	c2.192,11.607-4.975,25.783-2,38c8.809,4.191,20.849,5.152,30,9c-1.978,27.689-7.034,52.299-21,68c-36.803-5.216-74.11-12.321-114-9
	c-55.961,4.66-98.959,17.709-157,11c-14.079-1.627-32.162-0.832-42-7c-7.033-4.409-9.992-19.311-14-30
	c-11.964-31.904-31.727-59.185-47-83c30.37,3.812,55.888,6.263,87,9c9.719,0.855,21.279,4.147,30,2c9.443-2.324,19.732-15.816,29-24
	c9.288-8.2,20.389-20.899,29-23c11.607-2.83,18.353,3.415,29,1C221.201,43.504,225.015,15.651,242.528,1.498z M182.528,71.498
	c-10.459,6.084-20.592,17.205-29,25c-2.438,2.26-8.562,3.388-6,7c12.136,0.531,23.297,2.036,35,3c8.665-8.001,14.132-19.201,18-32
	C196.142,71.885,189.808,71.219,182.528,71.498z M216.528,80.498c-6.999,6.335-11.429,15.238-13,27c7.524,1.143,14.877,2.457,24,2
	c5.108-7.225,9.769-14.898,10-27C231.427,80.934,224.727,79.967,216.528,80.498z M252.528,86.498c-3.847,5.789-8.303,15.281-6,24
	c7.897,0.104,13.931,2.069,22,2c3.161-6.159,7.321-15.569,5-24C266.105,88.255,261.138,85.556,252.528,86.498z M80.528,152.498
	c12.593-0.598,13.364-22.613-2-20C63.714,135.019,70.606,152.97,80.528,152.498z M110.528,157.498c9.247-0.778,12.218-14.072,4-20
	C93.443,133.739,96.768,158.657,110.528,157.498z M137.528,161.498c12.177,0.069,13.828-23.595-2-20
	C123.015,144.341,126.926,161.438,137.528,161.498z"/>
</svg>
