<?xml version="1.0" encoding="UTF-8" standalone="no"?>
<!-- Created with Inkscape (http://www.inkscape.org/) -->

<svg
   xmlns:dc="http://purl.org/dc/elements/1.1/"
   xmlns:cc="http://creativecommons.org/ns#"
   xmlns:rdf="http://www.w3.org/1999/02/22-rdf-syntax-ns#"
   xmlns:svg="http://www.w3.org/2000/svg"
   xmlns="http://www.w3.org/2000/svg"
   xmlns:sodipodi="http://sodipodi.sourceforge.net/DTD/sodipodi-0.dtd"
   xmlns:inkscape="http://www.inkscape.org/namespaces/inkscape"
   version="1.1"
   width="66.559998"
   height="37.671295"
   viewBox="5 -10 66.559998 50.856248"
   id="Your_Icon"
   xml:space="preserve"
   inkscape:version="0.48.4 r9939"
   sodipodi:docname="tractor.svg"><sodipodi:namedview
     pagecolor="#ffffff"
     bordercolor="#666666"
     borderopacity="1"
     objecttolerance="10"
     gridtolerance="10"
     guidetolerance="10"
     inkscape:pageopacity="0"
     inkscape:pageshadow="2"
     inkscape:window-width="640"
     inkscape:window-height="480"
     id="namedview3030"
     showgrid="false"
     inkscape:zoom="5.4537262"
     inkscape:cx="33.279999"
     inkscape:cy="18.835648"
     inkscape:window-x="0"
     inkscape:window-y="27"
     inkscape:window-maximized="0"
     inkscape:current-layer="Your_Icon" /><metadata
     id="metadata3113"><rdf:RDF><cc:Work
         rdf:about=""><dc:format>image/svg+xml</dc:format><dc:type
           rdf:resource="http://purl.org/dc/dcmitype/StillImage" /><dc:title /></cc:Work></rdf:RDF></metadata><defs
     id="defs3111" /><g
     transform="translate(-11.807999,-34.57175)"
     id="g3093"
     style="fill:#ffffff"><g
       id="g3095"
       style="fill:#ffffff"><g
         id="g3097"
         style="fill:#ffffff"><g
           id="g3099"
           style="fill:#ffffff" /></g><g
         id="g3101"
         style="fill:#ffffff" /></g></g><path
     d="m 41.165001,1.20425 c -0.486,-0.487 -0.486,-1.276 0,-1.763 l 9.077,-9.076 c 0.487,-0.487 1.274,-0.487 1.765,0 0.485,0.487 0.485,1.276 0,1.764 l -9.077,9.075 c -0.243,0.244 -0.563,0.366 -0.882,0.366 -0.319,0 -0.638,-0.122 -0.883,-0.366 z m -6.6,19.384 c 0,11.195 -9.073,20.268 -20.268,20.268 -11.1949999,0 -20.2659999,-9.073 -20.2659999,-20.268 0,-11.192 9.072,-20.266 20.2669999,-20.266 11.195,0 20.267,9.074 20.267,20.266 z m -11.13,0 c 0,-5.045 -4.09,-9.137 -9.138,-9.137 -5.0459999,0 -9.1379999,4.092 -9.1379999,9.137 0,5.049 4.092,9.139 9.1379999,9.139 5.048,0 9.138,-4.09 9.138,-9.139 z m 53.535,-22.136 h -24.924 l -10.508,10.509 c -4.53,-10.569 -15.033,-17.992 -27.24,-17.992 -7.9119999,0 -15.3509999,3.08 -20.9459999,8.674 l 2.646,2.646 c 4.88899997,-4.887 11.388,-7.579 18.3009999,-7.579 14.269,0 25.88,11.61 25.88,25.878 v 0.038 h 22.848 c 2.539,-2.525 6.034,-4.091 9.89,-4.091 3.857,0 7.353,1.565 9.892,4.091 h 0.399 v -15.938 c -0.002,-3.445 -2.795,-6.236 -6.238,-6.236 z m -1.437,22.174 c -0.836,-0.22 -1.71,-0.349 -2.618,-0.349 -0.905,0 -1.779,0.129 -2.617,0.349 -4.411,1.16 -7.671,5.164 -7.671,9.94 0,5.683 4.607,10.289 10.288,10.289 5.685,0 10.291,-4.606 10.291,-10.289 0,-4.776 -3.261,-8.78 -7.673,-9.94 z"
     id="path3103"
     style="fill:#ffffff" /></svg>