<?xml version="1.0" encoding="UTF-8" standalone="no"?>
<!-- Created with Inkscape (http://www.inkscape.org/) -->

<svg
   xmlns:dc="http://purl.org/dc/elements/1.1/"
   xmlns:cc="http://creativecommons.org/ns#"
   xmlns:rdf="http://www.w3.org/1999/02/22-rdf-syntax-ns#"
   xmlns:svg="http://www.w3.org/2000/svg"
   xmlns="http://www.w3.org/2000/svg"
   version="1.1"
   width="66.08593"
   height="33.717037"
   viewBox="5 -10 66.08593 45.518"
   id="Your_Icon"
   xml:space="preserve"><metadata
     id="metadata3047"><rdf:RDF><cc:Work
         rdf:about=""><dc:format>image/svg+xml</dc:format><dc:type
           rdf:resource="http://purl.org/dc/dcmitype/StillImage" /><dc:title></dc:title></cc:Work></rdf:RDF></metadata><defs
     id="defs3045" /><path
     d="m 74.416964,30.765 c 0,2.626 -2.125,4.753 -4.751,4.753 -2.624,0 -4.751,-2.127 -4.751,-4.753 0,-2.624 2.127,-4.751 4.751,-4.751 2.626,0 4.751,2.127 4.751,4.751 z m -60.817,-4.751 c -2.624,0 -4.7520003,2.127 -4.7520003,4.751 0,2.626 2.1290003,4.753 4.7520003,4.753 2.625,0 4.751,-2.127 4.751,-4.753 10e-4,-2.624 -2.126,-4.751 -4.751,-4.751 z m 69.051,-12.354 v 14.255 c 0,1.572 -1.277,2.85 -2.851,2.85 h -0.641 c 0,-5.235 -4.26,-9.494 -9.494,-9.494 -5.235,0 -9.492,4.259 -9.492,9.494 h -0.333 -36.748 c 0,-5.235 -4.257,-9.494 -9.492,-9.494 -5.1770003,0 -9.3910003,4.167 -9.4850003,9.321 l -10.68,-2.677 V -10 H 61.268964 c 3.013,0 5.578,1.88 6.621,4.522 l 7.277,16.285 h 4.634 c 1.573,0.002 2.85,1.279 2.85,2.853 z"
     id="path3037" /></svg>